<?xml version="1.0" encoding="UTF-8" standalone="no"?>
<svg
   width="155.34384"
   height="155.34384"
   viewBox="0 0 155.34384 155.34384"
   fill="none"
   version="1.1"
   id="svg11"
   sodipodi:docname="logo-v2-src.svg"
   inkscape:version="1.2.2 (1:1.2.2+202212051550+b0a8486541)"
   inkscape:export-filename="logo-v2.svg"
   inkscape:export-xdpi="96"
   inkscape:export-ydpi="96"
   xmlns:inkscape="http://www.inkscape.org/namespaces/inkscape"
   xmlns:sodipodi="http://sodipodi.sourceforge.net/DTD/sodipodi-0.dtd"
   xmlns:xlink="http://www.w3.org/1999/xlink"
   xmlns="http://www.w3.org/2000/svg"
   xmlns:svg="http://www.w3.org/2000/svg">
  <sodipodi:namedview
     id="namedview13"
     pagecolor="#ffffff"
     bordercolor="#000000"
     borderopacity="0.25"
     inkscape:showpageshadow="2"
     inkscape:pageopacity="0.0"
     inkscape:pagecheckerboard="0"
     inkscape:deskcolor="#d1d1d1"
     showgrid="false"
     inkscape:zoom="1.3505"
     inkscape:cx="83.672714"
     inkscape:cy="102.92484"
     inkscape:window-width="1920"
     inkscape:window-height="1050"
     inkscape:window-x="0"
     inkscape:window-y="30"
     inkscape:window-maximized="1"
     inkscape:current-layer="layer1" />
  <defs
     id="defs9">
    <linearGradient
       id="linearGradient4476"
       inkscape:swatch="solid">
      <stop
         style="stop-color:#000000;stop-opacity:1;"
         offset="0"
         id="stop4474" />
    </linearGradient>
    <linearGradient
       id="linearGradient3530"
       inkscape:swatch="solid">
      <stop
         style="stop-color:#000000;stop-opacity:1;"
         offset="0"
         id="stop3528" />
    </linearGradient>
    <linearGradient
       id="linearGradient5040"
       inkscape:swatch="solid">
      <stop
         style="stop-color:#000000;stop-opacity:1;"
         offset="0"
         id="stop5038" />
    </linearGradient>
    <linearGradient
       id="linearGradient2257"
       x1="40"
       y1="160"
       x2="160"
       y2="40"
       gradientUnits="userSpaceOnUse">
      <stop
         stop-color="#FFF275"
         id="stop2249"
         offset="0"
         style="stop-color:#2b0000;stop-opacity:1;" />
      <stop
         stop-color="#FFF275"
         id="stop2251"
         offset="0.42788377"
         style="stop-color:#ff7575;stop-opacity:1;" />
      <stop
         stop-color="#FFF275"
         id="stop2253"
         offset="0.83954597"
         style="stop-color:#431010;stop-opacity:1;" />
      <stop
         offset="1"
         stop-color="#EA5459"
         id="stop2255"
         style="stop-color:#000000;stop-opacity:1;" />
    </linearGradient>
    <linearGradient
       id="paint0_linear"
       x1="40"
       y1="160"
       x2="160"
       y2="40"
       gradientUnits="userSpaceOnUse">
      <stop
         stop-color="#FFF275"
         id="stop1312"
         offset="0"
         style="stop-color:#2b0000;stop-opacity:1;" />
      <stop
         stop-color="#FFF275"
         id="stop4"
         offset="0.45416105"
         style="stop-color:#ff7575;stop-opacity:1;" />
      <stop
         stop-color="#FFF275"
         id="stop1259"
         offset="0.83954597"
         style="stop-color:#431010;stop-opacity:1;" />
      <stop
         offset="1"
         stop-color="#EA5459"
         id="stop6"
         style="stop-color:#000000;stop-opacity:1;" />
    </linearGradient>
    <linearGradient
       inkscape:collect="always"
       xlink:href="#paint0_linear"
       id="linearGradient1219"
       x1="51.268261"
       y1="125.44179"
       x2="147.51106"
       y2="125.44179"
       gradientUnits="userSpaceOnUse" />
    <radialGradient
       inkscape:collect="always"
       xlink:href="#linearGradient2257"
       id="radialGradient1863"
       cx="-1.3148514"
       cy="202.77539"
       fx="-1.3148514"
       fy="202.77539"
       r="90.071602"
       gradientUnits="userSpaceOnUse"
       gradientTransform="matrix(3.2000152,-0.85744149,0.85744149,3.2000152,-170.97534,-447.23635)" />
    <radialGradient
       inkscape:collect="always"
       xlink:href="#linearGradient2257"
       id="radialGradient2869"
       gradientUnits="userSpaceOnUse"
       gradientTransform="matrix(3.2000152,-0.85744149,0.85744149,3.2000152,-170.97534,-447.23635)"
       cx="-1.3148514"
       cy="202.77539"
       fx="-1.3148514"
       fy="202.77539"
       r="90.071602" />
  </defs>
  <g
     inkscape:groupmode="layer"
     id="layer5"
     inkscape:label="Layer 2"
     style="display:inline"
     transform="translate(-22.328079,-22.328079)">
    <g
       id="path1635"
       style="display:inline;fill:#8e6bf5;stroke-width:0"
       transform="matrix(0.86233528,0,0,0.86233528,13.766472,13.766472)">
      <g
         id="path2506"
         style="display:none;stroke:#000000;stroke-opacity:1">
        <path
           id="path2028"
           style="fill:#000000;fill-opacity:1;fill-rule:evenodd;stroke:none;stroke-width:0.500176;stroke-linecap:round;stroke-linejoin:round;stroke-miterlimit:6;stroke-dasharray:none;stroke-opacity:1"
           d="m 23.884766,26.398438 c -2.411268,0.07698 -5.148091,0.66146 -6.560138,2.820973 -1.148854,1.832599 -1.350057,4.212014 -0.725239,6.261009 0.843665,2.518768 3.457976,3.856622 5.927955,4.273486 3.12498,0.444424 6.050087,0.628054 9.148437,1.113282 -7.674835,5.646968 -12.605044,14.890072 -12.876126,24.431376 -0.181943,1.648653 0.366822,3.333504 1.556434,4.503088 1.00877,1.246504 2.277296,2.482496 3.972036,2.592879 4.651638,0.349514 9.397175,-0.258863 13.739074,-2.00052 4.68044,-1.774651 8.83201,-4.764714 12.208628,-8.439266 2.80137,-3.043918 5.312783,-6.457594 6.806204,-10.343417 1.182634,0.853999 2.223846,1.639108 3.384223,2.57159 0.59589,0.316257 0.696085,0.71921 0.132625,1.150953 -5.198937,6.236195 -8.992424,13.524504 -12.030924,21.01954 -2.328313,5.807518 -4.059485,11.859205 -5.002363,18.048697 0.133886,0.897287 -0.717319,0.628833 -1.314402,0.661102 -2.567408,-0.02511 -5.243569,0.03781 -7.571119,1.263234 -7.685459,3.462168 -13.190409,10.805436 -15.332311,18.852496 -1.718717,6.23999 -1.221473,13.09356 1.616166,18.93335 2.771237,5.85447 7.551769,10.61893 13.082949,13.90919 4.942826,2.91284 10.792229,3.95389 16.474162,3.64877 7.403741,-0.26636 14.847555,-2.85148 20.355118,-7.90149 4.942511,-4.44644 8.401874,-10.58446 9.306129,-17.19895 1.144046,-7.58964 -0.853304,-15.61224 -5.54673,-21.70315 -2.808427,-3.72368 -6.337595,-7.177684 -10.849032,-8.691762 -2.000185,-0.73089 -4.180256,-1.249086 -6.259178,-1.342867 0.834036,-5.293816 2.671664,-10.374046 4.714251,-15.308526 1.660933,-4.00165 3.751112,-7.81669 6.239182,-11.363899 0.904261,-1.323593 1.826938,-2.635386 2.810239,-3.901794 2.705823,1.703338 5.401689,3.441289 8.32282,4.762211 1.896484,1.003189 4.023042,1.502544 5.876586,2.58182 1.812108,1.349522 2.875182,3.423898 4.131027,5.252914 1.422991,2.231808 2.825775,4.476391 4.23402,6.717509 -4.97319,2.206086 -9.144671,6.061782 -12.033815,10.643434 -1.763371,2.838869 -2.739316,6.11965 -3.202513,9.41125 -0.35568,2.72122 0.258786,5.77676 2.445312,7.61328 2.205773,1.9874 5.406788,2.0472 8.175838,1.55919 5.586722,-0.87843 10.866409,-3.51699 14.960879,-7.4127 2.16723,6.19702 3.01641,12.76279 3.48438,19.2832 -4.18301,-0.2098 -8.34204,1.18685 -11.718753,3.625 -4.003513,2.8687 -7.130281,6.85201 -9.401213,11.19387 -2.525011,4.898 -3.029613,10.5786 -2.572361,15.997 0.525587,5.11725 2.764513,9.95691 5.834966,14.03902 5.206528,6.81171 13.383371,11.17319 21.886901,12.00157 5.51851,0.35929 11.10218,-0.67728 16.21758,-2.74515 5.06487,-2.03237 9.23625,-5.83565 12.50704,-10.13306 2.56144,-3.44112 4.0094,-7.58107 4.94358,-11.73094 0.19692,-0.94783 0.34679,-1.9084 0.3921,-2.87621 4.0096,0.0585 8.08088,0.003 11.96414,-1.11816 6.56605,-1.77385 12.24137,-6.10796 16.33114,-11.46654 4.95298,-6.54913 6.89257,-15.29671 5.01307,-23.30592 -1.86536,-8.31709 -7.71446,-15.61043 -15.36531,-19.334964 -1.94692,-0.97345 -4.08898,-1.650851 -6.2899,-1.493755 -1.04681,0.02962 -2.09184,0.102992 -3.13751,0.158788 -1.26436,-4.495035 -2.95306,-8.930188 -5.66618,-12.765853 -2.1918,-3.247474 -4.97388,-6.08525 -7.66,-8.878678 7.75217,-4.505895 13.71396,-12.201184 15.59161,-21.023927 0.59592,-3.076261 1.13196,-6.432048 -0.14239,-9.413573 -1.00053,-2.362923 -3.53145,-3.681494 -6.00781,-3.810547 -3.45652,-0.205029 -6.88191,0.619145 -10.18164,1.564453 -7.02781,2.127292 -13.39294,6.578555 -17.48051,12.716486 -1.92687,2.783827 -3.26733,5.912224 -4.40426,9.086248 -8.67692,-2.088115 -17.41061,-3.941367 -26.055754,-6.159703 -1.118854,-0.292912 -2.22948,-0.616967 -3.332914,-0.963344 -0.517219,-0.16501 -1.33857,-0.438222 -1.964049,-0.68073 C 83.562836,55.954805 80.612948,53.755502 77.998832,51.287022 73.174503,46.75744 68.473435,42.021458 62.919054,38.367905 52.994256,31.855713 41.46926,27.819971 29.654768,26.679674 27.738474,26.493029 25.811701,26.335188 23.884766,26.398438 Z m 82.537114,49.912109 c 4.77531,1.104893 9.57999,2.11722 14.28668,3.490767 5.68473,1.913914 10.80679,5.491199 14.59982,10.134214 1.73892,2.24555 3.2898,4.695192 4.22873,7.388691 -5.16978,0.323499 -9.86312,3.143911 -13.41247,6.787611 -2.40866,2.4733 -4.38066,5.37554 -5.77112,8.53661 -2.19804,-12.984007 -7.31919,-25.390264 -14.42774,-36.445315 0.16537,0.03581 0.33073,0.07161 0.4961,0.107422 z" />
      </g>
      <g
         id="g1671"
         style="display:inline;fill:url(#radialGradient1863);fill-opacity:1;stroke:#000000;stroke-opacity:1"
         sodipodi:insensitive="true">
        <path
           style="color:#000000;display:inline;fill:url(#radialGradient2869);fill-opacity:1;stroke:none;stroke-width:1.95155;stroke-linecap:round;stroke-linejoin:round;stroke-miterlimit:6;stroke-dasharray:none;stroke-opacity:1;paint-order:stroke fill markers"
           d="M 9.9283981,9.9283981 V 190.0716 H 190.0716 V 100 C 190.0716,50.254904 149.74495,9.9283981 100,9.9283981 Z M 25.59124,28.071728 l 0.13194,0.003 3.116736,0.269745 c 13.669164,1.031392 27.025038,6.237568 37.559155,14.572131 l 0.003,0.003 c 1.563357,1.235193 3.235834,2.577722 4.796781,4.110691 4.811475,4.724329 5.918519,7.044863 11.657704,10.159443 5.114676,2.777394 8.20378,3.257725 14.246677,4.609132 l 0.01171,0.003 15.152677,3.497897 7.35056,1.759211 c 2.31576,-10.104627 9.75552,-18.767852 20.18988,-22.08103 3.31498,-1.054131 4.61596,-1.224689 7.86954,-1.633134 1.23707,-0.154983 3.92364,-0.733156 6.26278,1.480669 1.08954,1.030973 1.67514,2.691398 1.70937,3.802828 0.0342,1.111428 -0.14817,1.743752 -0.17885,2.037753 v 0.003 c -0.22832,2.185197 -0.45632,4.225034 -1.23438,6.670341 -2.38827,7.533332 -8.53098,14.665645 -16.34307,18.187311 l 2.09639,1.565696 0.12895,0.117288 c 6.08806,5.605653 11.29423,13.602323 12.82758,22.248156 0.96623,-0.25641 1.94543,-0.506608 3.13727,-0.571744 4.561,-0.24908 8.36825,1.775398 11.30585,3.978738 6.45453,4.83673 10.6394,12.83264 10.73998,20.75577 v 0.003 c 0.16278,13.23277 -8.42177,24.42838 -21.90804,27.95386 -4.85777,1.26953 -8.02559,0.79241 -12.06525,0.60986 -0.16721,6.48125 -2.32418,12.91709 -6.94008,18.0026 -10.69411,11.78618 -30.02771,13.16853 -42.188814,2.53326 -3.134888,-2.74387 -5.33819,-5.67963 -7.08962,-9.34434 -1.89819,-3.97048 -2.595433,-8.23493 -2.544993,-12.35553 v -0.003 c 0.09384,-7.50349 3.917764,-15.05807 9.678593,-19.92013 h 0.003 c 2.708989,-2.28536 5.704114,-4.00543 9.071674,-4.60915 1.71281,-0.30707 3.48934,-0.27902 5.28056,0.0498 -0.15241,-5.60281 -0.54388,-10.49188 -1.98498,-16.65386 -0.60497,-2.57985 -1.66769,-5.16221 -2.55965,-7.70241 -3.28784,4.08803 -7.822453,7.1237 -13.164765,8.42075 h -0.0089 l -0.0089,0.003 c -0.789844,0.18735 -2.330059,0.55994 -4.025662,0.70661 -0.847799,0.0733 -1.737676,0.10448 -2.735572,-0.0528 -0.995965,-0.15691 -2.260865,-0.48714 -3.342501,-1.7035 -1.152085,-1.28961 -1.276827,-2.54398 -1.342864,-3.57705 -0.06635,-1.03814 0.02839,-1.9953 0.170056,-2.92031 0.283354,-1.84999 0.75603,-3.478316 1.152283,-4.550482 v -0.003 C 83.998878,91.957909 89.495432,86.646214 96.39933,84.381334 94.394501,81.133618 91.959135,77.293052 90.233297,74.796567 h -0.003 v -0.003 C 89.74525,74.090351 89.009181,72.931664 88.254116,71.823433 87.876587,71.269316 87.501081,70.74167 87.21325,70.36622 87.12057,70.245329 87.043046,70.173551 86.961096,70.087678 86.825823,70.024508 86.645884,69.93608 86.427468,69.864844 85.919083,69.699036 85.31512,69.536885 84.691713,69.328285 h -0.003 -0.003 c -2.102512,-0.706066 -4.0035,-1.552601 -5.881629,-2.489284 -3.004875,-1.49687 -5.318247,-3.102902 -7.8021,-5.101711 l -5.104645,6.981135 c -5.366731,8.627809 -8.937185,17.660124 -10.382275,27.470081 v 0.003 c -0.03445,0.234767 -0.03172,0.401653 -0.06451,0.627451 0.492387,-0.07054 0.902498,-0.214536 1.45135,-0.234562 8.658902,-0.319718 15.066724,6.431375 18.413074,12.255835 5.784751,10.06556 4.451867,22.95371 -3.453918,31.66874 -6.022162,6.63811 -14.458824,9.77586 -23.34473,9.67859 -15.19545,-0.16884 -28.295644,-12.37722 -28.478693,-27.0508 -0.09849,-8.00018 2.971852,-15.81197 9.320886,-21.40667 2.947201,-2.598721 6.744105,-4.970139 11.50524,-5.145695 1.563594,-0.05847 2.88617,0.191239 4.137077,0.510172 1.101603,-11.672179 5.956272,-24.476626 11.877607,-33.768055 0.93098,-1.461618 2.462552,-3.733794 4.122417,-5.951996 0.801522,-1.071133 1.664681,-1.826367 2.474624,-2.776623 -2.165564,-2.040525 -4.543489,-3.911104 -7.256745,-5.743822 -1.430223,5.086049 -4.510587,9.738187 -8.491125,13.446235 -5.404201,5.034251 -12.538076,8.460975 -20.013958,8.543901 h -0.003 c -0.281169,0.0026 -1.023737,0.0553 -1.920472,-0.003 -0.895469,-0.05814 -2.157418,-0.02531 -3.594654,-1.383913 -2.139069,-2.017755 -1.550066,-4.129016 -1.553969,-4.556356 v -0.003 -0.0059 c -0.0248,-3.765308 0.851376,-7.475766 2.383729,-10.848467 2.49354,-5.492569 7.224067,-10.782498 13.05921,-14.173377 -2.691009,-0.579417 -5.509349,-1.088097 -7.203625,-1.243248 l -7.406278,-0.583472 -0.486714,-0.196446 c -1.722141,-0.696711 -3.055652,-2.380783 -3.219357,-4.239697 -0.163704,-1.858916 0.89479,-3.800983 2.5274,-4.744007 1.516873,-0.876604 2.405595,-0.751227 3.275065,-0.788712 0.869465,-0.03756 1.656712,-0.0063 2.02016,-0.003 z m 76.52274,45.455078 0.39289,0.586404 v 0.003 c 3.06422,4.558884 5.86045,9.045019 8.31815,14.094212 5.17938,10.638758 7.92434,21.510688 8.8459,33.064388 0.84119,-6.42891 3.39912,-12.38642 8.93091,-17.26373 2.94723,-2.59876 6.74411,-4.967219 11.50525,-5.14277 0.62546,-0.02309 1.10676,0.128682 1.67418,0.17592 -0.474,-1.544361 -0.67245,-3.056997 -1.1992,-4.110689 -1.33723,-2.669209 -2.86785,-5.128351 -4.77331,-7.224493 h -0.003 c -2.18395,-2.404724 -5.68164,-5.348012 -8.43541,-6.899039 -4.93142,-2.774123 -8.04701,-3.322102 -13.91829,-4.667773 h -0.003 z"
           id="path1669" />
      </g>
    </g>
  </g>
  <g
     inkscape:groupmode="layer"
     id="g2190"
     inkscape:label="Layer 2 copy"
     style="display:inline"
     transform="translate(-22.328079,-22.328079)">
    <g
       id="g2188"
       style="display:inline;fill:#8e6bf5;stroke-width:0"
       transform="matrix(0.86233528,0,0,0.86233528,13.766472,13.766472)">
      <path
         id="path2225"
         style="fill:#000000;fill-opacity:1;fill-rule:evenodd;stroke:#000000;stroke-width:2.35523;stroke-linecap:round;stroke-linejoin:round;stroke-miterlimit:6;stroke-dasharray:none;stroke-opacity:1"
         d="m 23.88492,26.398987 c -2.411266,0.07698 -5.147178,0.660321 -6.559224,2.819832 -1.148852,1.832597 -1.351858,4.213526 -0.727041,6.262519 0.843665,2.518765 3.459598,3.854785 5.929575,4.271649 3.124977,0.444423 6.049686,0.629116 9.148033,1.114343 -7.674827,5.646962 -12.605019,14.890455 -12.8761,24.431749 -0.181943,1.648652 0.366393,3.333089 1.556003,4.502672 1.008769,1.246503 2.277941,2.482956 3.972679,2.593339 4.651634,0.349514 9.397143,-0.260538 13.739037,-2.002194 4.680436,-1.774649 8.831333,-4.764563 12.207948,-8.439111 2.801367,-3.043915 5.312681,-6.45583 6.8061,-10.341649 1.182633,0.853998 2.223423,1.638209 3.383799,2.57069 0.595889,0.316257 0.69709,0.718839 0.13363,1.150582 -5.198931,6.236189 -8.992786,13.525743 -12.031283,21.020772 -2.328311,5.807512 -4.060343,11.857439 -5.00322,18.046925 0.133886,0.897286 -0.716574,0.629089 -1.313657,0.661358 -2.567405,-0.02511 -5.244097,0.03841 -7.571645,1.263828 -7.685451,3.462165 -13.189379,10.806189 -15.331279,18.853239 -1.718716,6.23998 -1.222745,13.09273 1.614891,18.93251 2.771235,5.85446 7.553299,10.61865 13.084474,13.90891 4.942821,2.91283 10.790874,3.95391 16.472802,3.64879 7.403733,-0.26636 14.847326,-2.85005 20.354883,-7.90006 4.942507,-4.44643 8.402324,-10.58536 9.306579,-17.19984 1.144044,-7.58963 -0.853381,-15.61161 -5.546803,-21.70252 -2.808424,-3.72367 -6.337559,-7.178702 -10.848992,-8.692779 -2.000183,-0.730889 -4.179068,-1.24932 -6.257988,-1.343101 0.834035,-5.29381 2.670724,-10.374155 4.713309,-15.30863 1.660932,-4.001646 3.751802,-7.815925 6.239869,-11.36313 0.904261,-1.323592 1.827473,-2.63606 2.810773,-3.902466 2.70582,1.703336 5.400207,3.442217 8.321335,4.763138 1.896482,1.003188 4.023939,1.50274 5.877481,2.582014 1.812107,1.349521 2.87538,3.423348 4.131224,5.252362 1.42299,2.231806 2.824902,4.476653 4.233146,6.717769 -4.973185,2.206084 -9.144407,6.061236 -12.033549,10.642884 -1.763369,2.838866 -2.739407,6.119169 -3.202604,9.410769 -0.35568,2.72121 0.259596,5.77816 2.446119,7.61467 2.205771,1.9874 5.405069,2.04628 8.174116,1.55827 5.586716,-0.87843 10.86763,-3.51739 14.9621,-7.4131 2.16722,6.19702 3.01548,12.76317 3.48345,19.28358 -4.183,-0.2098 -8.342012,1.18799 -11.718722,3.62614 -4.003509,2.8687 -7.130775,6.85141 -9.401705,11.19326 -2.525008,4.898 -3.027942,10.57878 -2.57069,15.99717 0.525586,5.11725 2.763998,9.9559 5.834447,14.03801 5.206523,6.8117 13.38245,11.17346 21.88597,12.00184 5.51851,0.35929 11.10374,-0.67723 16.21913,-2.74509 5.06487,-2.03237 9.23613,-5.83587 12.50692,-10.13328 2.56144,-3.44112 4.00789,-7.58018 4.94207,-11.73005 0.19692,-0.94783 0.34879,-1.90864 0.3941,-2.87645 4.00959,0.0585 8.08007,0.002 11.96333,-1.11888 6.56604,-1.77384 12.24035,-6.10647 16.33011,-11.46505 4.95298,-6.54912 6.89405,-15.29688 5.01455,-23.30608 -1.86536,-8.31708 -7.71441,-15.61114 -15.36526,-19.335666 -1.94691,-0.973449 -4.08878,-1.651946 -6.28969,-1.494851 -1.04681,0.02962 -2.09352,0.105014 -3.13919,0.16081 -1.26436,-4.49503 -2.95146,-8.931723 -5.66458,-12.767384 -2.1918,-3.247471 -4.97386,-6.085082 -7.65998,-8.878507 7.75217,-4.505891 13.7141,-12.200303 15.59175,-21.023037 0.59592,-3.076258 1.13166,-6.431507 -0.14269,-9.413029 -1.00053,-2.362921 -3.53249,-3.682817 -6.00885,-3.81187 -3.45651,-0.205028 -6.88111,0.619757 -10.18084,1.565064 -7.0278,2.12729 -13.39312,6.577366 -17.48069,12.71529 -1.92687,2.783825 -3.26835,5.91286 -4.40528,9.086881 -8.67691,-2.088113 -17.41057,-3.939998 -26.055701,-6.158332 -1.118852,-0.292912 -2.228272,-0.618482 -3.331705,-0.964858 -0.517218,-0.16501 -1.338212,-0.43697 -1.96369,-0.679478 C 83.563721,55.955648 80.612629,53.754464 77.998516,51.285986 73.174191,46.756409 68.473018,42.020402 62.918643,38.366853 52.993855,31.854667 41.468165,27.820134 29.653685,26.679838 27.737393,26.493193 25.811853,26.335737 23.88492,26.398987 Z m 1.705489,1.671515 v 0.0023 l 0.13363,0.0023 3.116538,0.269526 c 13.66915,1.031391 27.02515,6.237975 37.559256,14.572529 l 0.0023,0.0023 c 1.563355,1.235192 3.236166,2.577872 4.797112,4.11084 4.81147,4.724324 5.918391,7.045878 11.65757,10.160455 5.114671,2.777391 8.20349,3.257717 14.246381,4.609123 l 0.01132,0.0023 15.152354,3.497044 7.35194,1.759847 c 2.31576,-10.104617 9.7552,-18.767582 20.18955,-22.080757 3.31497,-1.054129 4.61477,-1.224566 7.86835,-1.633011 1.23707,-0.154983 3.92564,-0.732561 6.26478,1.481261 1.08954,1.030972 1.67352,2.691381 1.70775,3.80281 0.0342,1.111427 -0.14824,1.742167 -0.17892,2.036168 v 0.0045 c -0.22832,2.185195 -0.45633,4.2249 -1.23439,6.670205 -2.38827,7.533324 -8.52935,14.665688 -16.34143,18.18735 l 2.09505,1.565063 0.1291,0.117777 c 6.08806,5.605647 11.29519,13.602536 12.82854,22.248361 0.96623,-0.25641 1.94508,-0.50789 3.13692,-0.573026 4.561,-0.24908 8.36891,1.776133 11.30651,3.979473 6.45452,4.83673 10.63743,12.83265 10.73801,20.75578 v 0.002 c 0.16278,13.23276 -8.4201,24.42823 -21.90636,27.95371 -4.85776,1.26953 -8.0256,0.79408 -12.06526,0.61153 -0.16721,6.48124 -2.3261,12.91612 -6.94199,18.00163 -10.6941,11.78616 -30.02767,13.16744 -42.188765,2.53218 -3.134885,-2.74387 -5.337788,-5.67811 -7.089216,-9.34282 -1.898188,-3.97047 -2.593951,-8.23457 -2.543511,-12.35516 v -0.005 c 0.09384,-7.50348 3.917202,-15.05797 9.678026,-19.92002 h 0.0023 c 2.708987,-2.28536 5.703476,-4.0054 9.071026,-4.60912 1.71281,-0.30707 3.49059,-0.27899 5.28181,0.0498 -0.15241,-5.6028 -0.54298,-10.49202 -1.98408,-16.65399 -0.60496,-2.57985 -1.66967,-5.16055 -2.56163,-7.70075 -3.28783,4.08803 -7.821438,7.12168 -13.163745,8.41873 h -0.0091 l -0.0091,0.005 c -0.789843,0.18735 -2.329171,0.55999 -4.024773,0.70666 -0.847798,0.0733 -1.738134,0.10292 -2.736029,-0.0544 -0.995964,-0.15691 -2.261395,-0.48687 -3.34303,-1.70323 -1.152084,-1.2896 -1.277064,-2.54324 -1.343101,-3.57631 -0.06635,-1.03814 0.0282,-1.99448 0.16987,-2.91949 0.283353,-1.84999 0.756594,-3.480336 1.152847,-4.552501 v -0.0023 c 2.42383,-6.549882 7.920045,-11.861461 14.823936,-14.126339 -2.004827,-3.247713 -4.439291,-7.088681 -6.165127,-9.585164 h -0.0023 v -0.0023 c -0.485046,-0.703215 -1.222215,-1.861087 -1.97728,-2.969317 -0.377528,-0.554116 -0.754035,-1.083162 -1.041865,-1.458612 -0.09268,-0.120891 -0.169457,-0.192713 -0.251407,-0.278586 -0.135273,-0.06317 -0.313842,-0.150726 -0.532257,-0.221962 -0.508385,-0.165808 -1.113792,-0.328188 -1.737198,-0.536788 h -0.0023 -0.0023 c -2.10251,-0.706065 -4.003884,-1.55247 -5.882011,-2.489152 -3.004872,-1.496869 -5.318817,-3.10407 -7.802668,-5.102877 l -5.105141,6.982765 c -5.366726,8.6278 -8.937329,17.659067 -10.382418,27.469014 v 0.0023 c -0.03445,0.234766 -0.03063,0.403851 -0.06342,0.629649 0.492387,-0.07054 0.902966,-0.215526 1.451817,-0.235552 8.658894,-0.319718 15.065231,6.431052 18.411578,12.255502 5.784745,10.06555 4.451766,22.95317 -3.454011,31.66819 -6.022156,6.6381 -14.458688,9.77756 -23.344585,9.68029 -15.195435,-0.16884 -28.296122,-12.3787 -28.479171,-27.05227 -0.09849,-8.00017 2.973405,-15.81111 9.322433,-21.40581 2.947198,-2.59871 6.742425,-4.970347 11.503555,-5.145902 1.563593,-0.05847 2.887113,0.190675 4.138019,0.509608 1.101602,-11.672167 5.955939,-24.476352 11.877268,-33.767772 0.930979,-1.461616 2.462301,-3.734024 4.122164,-5.952223 0.801521,-1.071132 1.665621,-1.826544 2.475563,-2.776799 -2.165561,-2.040523 -4.543567,-3.911134 -7.25682,-5.74385 -1.430222,5.086044 -4.510671,9.738817 -8.491205,13.446861 -5.404196,5.034246 -12.539271,8.460373 -20.015145,8.543299 h -0.0023 c -0.281169,0.0026 -1.023923,0.05604 -1.920657,-0.0023 -0.895468,-0.05814 -2.157202,-0.02527 -3.594436,-1.38387 -2.139067,-2.017753 -1.549836,-4.12969 -1.553739,-4.55703 v -0.0023 -0.0068 c -0.0248,-3.765304 0.85035,-7.47403 2.382701,-10.846728 C 25.51763,48.551781 30.248515,43.261318 36.083652,39.870442 33.392801,39.291346 30.57562,38.78247 28.881345,38.627319 L 21.47504,38.042968 20.988081,37.84592 c -1.72214,-0.696711 -3.054754,-2.378763 -3.218459,-4.237676 -0.163704,-1.858914 0.892783,-3.801995 2.525391,-4.745018 1.516872,-0.876603 2.405613,-0.750709 3.275082,-0.788194 0.869465,-0.03756 1.656866,-0.0078 2.020314,-0.0045 z m 76.522771,45.457051 0.39409,0.586616 v 0.0023 c 3.06422,4.558879 5.85911,9.045442 8.31681,14.09463 5.17937,10.638747 7.92524,21.509691 8.8468,33.063371 0.84119,-6.4289 3.39881,-12.38594 8.9306,-17.26326 2.94722,-2.59875 6.74468,-4.968087 11.50582,-5.143638 0.62546,-0.02309 1.10636,0.129427 1.67378,0.176665 -0.474,-1.54436 -0.6714,-3.057149 -1.19815,-4.11084 -1.33723,-2.669206 -2.869,-5.128972 -4.77446,-7.225112 h -0.002 c -2.18394,-2.404721 -5.68308,-5.347937 -8.43684,-6.898962 -4.93142,-2.77412 -8.04669,-3.322342 -13.91797,-4.668011 h -0.002 z m 3.81186,2.674877 c 0.16537,0.03581 0.33065,0.0729 0.49602,0.108716 4.77531,1.104892 9.58047,2.116704 14.28715,3.49025 5.68473,1.913912 10.80668,5.490266 14.59971,10.133276 1.73892,2.245548 3.28969,4.696955 4.22862,7.390451 -5.16978,0.323499 -9.86355,3.142017 -13.41289,6.785717 -2.40866,2.4733 -4.38057,5.37544 -5.77103,8.5365 -2.19804,-12.983991 -7.31903,-25.38987 -14.42758,-36.44491 z" />
    </g>
  </g>
  <g
     inkscape:groupmode="layer"
     id="layer1"
     inkscape:label="Layer 1"
     style="display:none"
     transform="translate(-22.328079,-22.328079)">
    <path
       id="path2498"
       style="color:#000000;display:none;fill:url(#linearGradient1219);fill-opacity:1;fill-rule:nonzero;stroke:none;stroke-width:0;stroke-dasharray:none;stroke-opacity:1"
       d="m 60.775391,102.25781 c -1.778568,0.0656 -3.272133,0.91947 -4.832032,2.29492 v 0.002 c -3.223328,2.83989 -4.725108,6.63579 -4.673828,10.80078 0.08768,7.02832 6.807462,13.45571 14.486328,13.54101 4.851211,0.0531 9.049594,-1.55441 12.140625,-4.96093 3.936556,-4.3395 4.594839,-10.79968 1.728516,-15.78711 -1.676959,-2.91884 -5.079766,-6.00466 -8.167969,-5.89063 -0.616859,0.0225 -1.12584,0.28016 -1.59375,0.4336 1.160083,0.0978 2.260679,0.7015 2.775391,1.7832 0.578056,1.21482 0.251136,2.80562 -0.615234,3.81445 l -0.002,0.002 c -1.193613,1.38573 -2.830086,2.00302 -4.402343,2.21875 -1.572259,0.21572 -3.148249,0.0506 -4.580079,-0.55079 -0.562702,-0.23623 -1.159593,-0.5599 -1.761718,-1.05859 -0.602126,-0.49869 -1.315064,-1.18785 -1.535156,-2.43945 v -0.002 c -0.197808,-1.12799 0.264377,-2.32325 1.041015,-3.02148 0.575781,-0.51765 1.314459,-0.73276 2.074219,-0.78906 v -0.043 c -0.671846,-0.23159 -1.289573,-0.37726 -2.082031,-0.34766 z m 66.109379,1.52149 c -1.77857,0.0656 -3.27213,0.91945 -4.83204,2.29492 -3.14925,2.77666 -4.28581,5.74284 -4.55468,9.55859 0.69041,0.12544 1.35975,0.12751 2.02539,0.37305 3.28684,1.21316 6.13891,3.7114 8.31054,6.65234 1.72405,2.3348 2.81754,4.9765 3.36719,7.65235 1.77479,0.107 3.13894,0.17162 5.10352,-0.3418 7.2486,-1.89488 11.28918,-7.26856 11.20508,-14.17578 -0.0458,-3.6084 -2.28681,-7.96805 -5.33985,-10.25586 -1.52597,-1.14454 -3.00537,-1.83695 -4.5625,-1.75195 -0.56981,0.0311 -1.08771,0.30994 -1.54297,0.44922 1.12345,0.12712 2.18309,0.70986 2.6836,1.76171 0.57806,1.21483 0.25113,2.80367 -0.61524,3.8125 v 0.002 l -0.002,0.002 c -1.19361,1.38575 -2.83009,2.00302 -4.40234,2.21875 -1.57227,0.21573 -3.14825,0.0506 -4.58008,-0.55078 -0.56271,-0.23623 -1.1596,-0.56186 -1.76172,-1.06055 -0.60213,-0.49869 -1.31506,-1.18785 -1.53516,-2.43945 -0.19779,-1.12799 0.26437,-2.32325 1.04102,-3.02149 0.54056,-0.48599 1.22632,-0.69879 1.93554,-0.77929 l -0.004,-0.1211 c -0.59746,-0.19409 -1.1472,-0.30849 -1.93945,-0.27929 z m -22.40039,18.24414 c -0.31124,0.003 -0.61639,0.0331 -0.92188,0.0879 -1.22195,0.21906 -2.51979,0.89109 -3.919922,2.07226 -2.749234,2.32034 -4.795591,6.47716 -4.83789,9.85938 -0.02686,2.19447 0.347702,4.32731 1.251953,6.21875 0.95767,2.00384 1.904169,3.26823 3.617187,4.76758 6.112512,5.34558 16.387242,4.60088 21.759762,-1.32032 2.4282,-2.6752 3.54616,-6.08733 3.50196,-9.66601 -0.0423,-3.38222 -2.08866,-7.53905 -4.83789,-9.85938 -1.40013,-1.18117 -2.69602,-1.8532 -3.91797,-2.07226 -0.87907,-0.1576 -1.80958,-0.007 -2.82422,0.34179 1.17696,0.0834 2.29899,0.69934 2.82031,1.79493 0.57806,1.21482 0.24918,2.80366 -0.61719,3.8125 v 0.002 l -0.002,0.002 c -1.19362,1.38574 -2.83008,2.00107 -4.40234,2.2168 -1.57226,0.21573 -3.14825,0.0506 -4.58008,-0.55078 v 0.002 c -0.5627,-0.23623 -1.15959,-0.56185 -1.76172,-1.06054 -0.60213,-0.49869 -1.31507,-1.18784 -1.53516,-2.43946 -0.19781,-1.128 0.26437,-2.32325 1.04102,-3.02148 0.55594,-0.49981 1.26476,-0.71281 1.99609,-0.78321 -0.28473,-0.0945 -0.6062,-0.27426 -0.87304,-0.32226 -0.3285,-0.059 -0.6458,-0.0846 -0.95703,-0.082 z" />
  </g>
</svg>
