<?xml version="1.0" encoding="UTF-8" standalone="no"?>
<svg
   width="200"
   height="200"
   viewBox="0 0 200 200"
   fill="none"
   version="1.1"
   id="svg11"
   sodipodi:docname="logo-v3-src.svg"
   inkscape:version="1.2.2 (1:1.2.2+202212051550+b0a8486541)"
   inkscape:export-filename="logo-v3.png"
   inkscape:export-xdpi="96"
   inkscape:export-ydpi="96"
   xmlns:inkscape="http://www.inkscape.org/namespaces/inkscape"
   xmlns:sodipodi="http://sodipodi.sourceforge.net/DTD/sodipodi-0.dtd"
   xmlns:xlink="http://www.w3.org/1999/xlink"
   xmlns="http://www.w3.org/2000/svg"
   xmlns:svg="http://www.w3.org/2000/svg">
  <sodipodi:namedview
     id="namedview13"
     pagecolor="#ffffff"
     bordercolor="#000000"
     borderopacity="0.25"
     inkscape:showpageshadow="2"
     inkscape:pageopacity="0.0"
     inkscape:pagecheckerboard="0"
     inkscape:deskcolor="#d1d1d1"
     showgrid="false"
     inkscape:zoom="1.887768"
     inkscape:cx="168.4529"
     inkscape:cy="104.35604"
     inkscape:window-width="1920"
     inkscape:window-height="1050"
     inkscape:window-x="0"
     inkscape:window-y="30"
     inkscape:window-maximized="1"
     inkscape:current-layer="path1635" />
  <defs
     id="defs9">
    <linearGradient
       id="linearGradient4476"
       inkscape:swatch="solid">
      <stop
         style="stop-color:#000000;stop-opacity:1;"
         offset="0"
         id="stop4474" />
    </linearGradient>
    <linearGradient
       id="linearGradient3530"
       inkscape:swatch="solid">
      <stop
         style="stop-color:#000000;stop-opacity:1;"
         offset="0"
         id="stop3528" />
    </linearGradient>
    <linearGradient
       id="linearGradient5040"
       inkscape:swatch="solid">
      <stop
         style="stop-color:#000000;stop-opacity:1;"
         offset="0"
         id="stop5038" />
    </linearGradient>
    <linearGradient
       id="paint0_linear"
       x1="40"
       y1="160"
       x2="160"
       y2="40"
       gradientUnits="userSpaceOnUse">
      <stop
         stop-color="#FFF275"
         id="stop1312"
         offset="0"
         style="stop-color:#2b0000;stop-opacity:1;" />
      <stop
         stop-color="#FFF275"
         id="stop4"
         offset="0.45416105"
         style="stop-color:#ff7575;stop-opacity:1;" />
      <stop
         stop-color="#FFF275"
         id="stop1259"
         offset="0.83954597"
         style="stop-color:#431010;stop-opacity:1;" />
      <stop
         offset="1"
         stop-color="#EA5459"
         id="stop6"
         style="stop-color:#000000;stop-opacity:1;" />
    </linearGradient>
    <linearGradient
       inkscape:collect="always"
       xlink:href="#paint0_linear"
       id="linearGradient1219"
       x1="51.268261"
       y1="125.44179"
       x2="147.51106"
       y2="125.44179"
       gradientUnits="userSpaceOnUse" />
  </defs>
  <g
     inkscape:groupmode="layer"
     id="layer5"
     inkscape:label="Layer 2"
     style="display:inline">
    <g
       id="path1635"
       style="display:inline;fill:#9f3334;fill-opacity:1;stroke-width:0"
       transform="matrix(0.86233528,0,0,0.86233528,13.766472,13.766472)">
      <g
         id="g1671"
         style="display:inline;fill:#131518;fill-opacity:1;stroke:#000000;stroke-opacity:1"
         inkscape:label="g1671"
         transform="matrix(1.2549199,0,0,1.2549199,-25.491993,-25.491993)">
        <path
           style="color:#000000;display:inline;fill:#131518;fill-opacity:1;stroke:none;stroke-width:1.95155;stroke-linecap:round;stroke-linejoin:round;stroke-miterlimit:6;stroke-dasharray:none;stroke-opacity:1;paint-order:stroke fill markers"
           d="M 9.9283982,9.9283981 V 190.0716 H 190.0716 V 100 C 190.0716,50.254904 149.74495,9.9283981 100,9.9283981 Z"
           id="path1669"
           inkscape:label="path1669"
           sodipodi:nodetypes="cccssc" />
      </g>
      <path
         id="Selection"
         fill="none"
         stroke="#000000"
         stroke-width="0.335716"
         d="m 126.78133,61.401221 c 0.98365,-12.122684 9.22546,-23.067006 20.81436,-26.96802 3.55522,-1.198503 4.42471,-1.279074 8.05716,-1.762503 1.28915,-0.171217 2.87708,-0.335716 3.88423,0.674787 1.06421,1.067573 0.66472,2.249294 0.53714,3.548512 -0.25179,2.554793 -0.46329,4.555657 -1.21192,7.050022 -2.90395,9.715604 -12.36777,19.696423 -22.68094,21.150071 0,0 8.05717,6.38195 8.05717,6.38195 7.31187,7.13731 13.67033,18.037989 13.76433,28.53246 2.36344,-1.017235 4.04873,-1.829657 6.7143,-1.984088 3.82716,-0.221568 7.17088,1.581225 10.07146,3.887588 6.12346,4.86452 10.31319,13.41519 10.40718,21.26086 0.16114,13.88184 -7.96652,25.21222 -21.48577,28.95881 -4.87125,1.34957 -7.65433,0.80236 -12.42149,0.58414 -0.44649,-9.68875 -8.77559,-21.83157 -17.79291,-25.35994 -1.72557,-0.67478 -4.18972,-1.07765 -6.04286,-1.16157 0,-9.12139 2.17543,-16.69513 9.06431,-23.13415 2.93415,-2.74279 6.28459,-4.891372 10.40717,-5.052516 2.83008,-0.110809 4.5288,0.594205 7.05003,1.665153 -0.16451,-3.578741 -1.75244,-8.839397 -3.28331,-12.085765 -1.58457,-3.353797 -3.45785,-6.573308 -5.88172,-9.400031 -2.70922,-3.16244 -6.71767,-6.77138 -10.30647,-8.913245 -5.90524,-3.521653 -9.99761,-4.334084 -16.45005,-5.901876 0,0 -15.77863,-3.860727 -15.77863,-3.860727 0,0 -6.042875,-1.467075 -6.042875,-1.467075 0,0 5.690375,9.064315 5.690375,9.064315 3.35716,5.294231 6.35509,10.40382 8.97704,16.114339 5.65344,12.310681 8.60774,24.799308 9.53431,38.271558 0,0 0.30549,4.0286 0.30549,4.0286 0,0 0,6.71429 0,6.71429 6.48938,-3.67608 12.11933,-2.03107 17.45721,2.74281 5.48559,4.90815 9.31275,13.02239 9.40004,20.42156 0.084,7.20109 -2.07809,14.27461 -6.81503,19.8072 -10.40717,12.15963 -29.69067,13.63005 -41.527997,2.65552 -3.165796,-2.93751 -5.176731,-5.78102 -6.945952,-9.70554 -1.806148,-4.00508 -2.504436,-8.39625 -2.45408,-12.75718 0.08729,-7.39917 3.914443,-15.51341 9.400032,-20.42156 5.337867,-4.77388 10.967817,-6.41889 17.457197,-2.74281 0,-9.76931 -0.36592,-16.55412 -2.491,-26.1858 -1.36636,-6.177168 -3.50487,-11.850759 -5.56616,-17.792916 0,0 -1.78265,4.028584 -1.78265,4.028584 -3.10537,5.760879 -8.302247,9.994252 -14.667411,11.632542 -1.70879,0.42972 -6.237593,1.53421 -7.520025,0 -1.329434,-1.56443 0.06379,-7.117175 0.701646,-8.94682 2.830081,-8.107526 10.158748,-14.707691 18.90414,-15.442907 -1.74908,-4.038657 -7.130601,-12.119327 -9.735752,-16.11434 -0.862789,-1.326075 -3.474655,-5.764233 -4.434802,-6.526307 -0.755359,-0.600931 -2.628651,-1.074289 -3.622369,-1.42679 -2.121721,-0.75536 -4.055441,-1.665148 -6.042876,-2.715938 -3.115438,-1.645006 -5.388235,-3.306798 -8.057169,-5.589662 0,0 -3.021442,-2.541365 -3.021442,-2.541365 0,0 -8.104167,11.750039 -8.104167,11.750039 -6.204022,10.558249 -10.393746,21.751002 -12.082398,33.907256 -0.31557,2.279504 -0.624432,4.404582 -0.627791,6.714304 2.168726,-0.919852 3.612301,-1.571143 6.042878,-1.66514 7.375669,-0.288722 13.764334,6.40545 17.017415,12.40805 5.596378,10.32324 4.310587,23.6075 -3.353795,32.56439 -5.915307,6.91237 -14.093334,10.17553 -23.06365,10.07145 -14.825186,-0.17456 -27.6898,-13.02911 -27.864375,-27.86437 -0.09732,-8.38282 2.856937,-16.32921 9.064315,-22.127 2.934154,-2.742795 6.284585,-4.891386 10.407176,-5.05252 3.048289,-0.120862 5.025663,0.842645 7.721453,2.000864 0,-13.757622 6.049594,-31.25511 13.092902,-42.971577 C 59.57446,51.104828 64.304689,43.843306 67.023984,41.594012 63.525829,37.330427 55.878231,30.924977 50.909644,28.501112 50.597423,42.785801 36.312742,56.869062 22.038119,57.03692 21.041049,57.047085 19.26511,57.221564 18.546681,56.499777 17.945749,55.898845 18.016247,54.804413 18.009538,54.015482 17.986046,50.23197 18.825324,46.414885 20.3159,42.936873 23.991982,34.352631 33.130155,25.288314 42.85247,24.472526 38.857457,21.739802 28.661785,19.638224 23.7167,19.158152 c 0,0 -7.684524,-0.641219 -7.684524,-0.641219 -1.510727,-0.647927 -1.655083,-2.554792 -0.295432,-3.387366 0.849355,-0.520359 2.920724,-0.402859 3.951375,-0.392789 0,0 3.357152,0.308861 3.357152,0.308861 14.395467,1.151503 28.549233,7.006379 39.614413,16.288909 1.715505,1.436864 3.471296,2.937512 5.022302,4.552303 5.086087,5.294231 6.868737,8.637957 13.777761,12.612828 6.09995,3.511583 10.158747,4.240084 16.78577,5.811233 0,0 16.785763,4.109156 16.785763,4.109156 0,0 11.75005,2.981153 11.75005,2.981153 z M 48.223924,97.322774 c -2.027721,1.16493 -1.869935,1.050782 -4.028593,0.335704 0,0 0,8.057182 0,8.057182 -0.788927,-0.57743 -2.078068,-1.6853 -3.021431,-1.83301 -1.309291,-0.20814 -2.447368,0.82922 -2.225795,2.16872 0.235003,1.41673 2.01093,2.63537 3.232935,3.17923 3.249724,1.44694 8.282098,1.03401 10.638826,-1.86658 1.403289,-1.73229 0.292071,-3.52837 -1.245512,-3.4545 -1.047429,0.0503 -2.494355,1.20521 -3.35043,1.80614 0,0 0,-8.392886 0,-8.392886 z M 153.97428,100.0085 c 0,0 0.33571,8.39288 0.33571,8.39288 -0.78893,-0.57743 -2.07809,-1.68529 -3.02145,-1.833 -1.30928,-0.20814 -2.44736,0.82921 -2.22578,2.16872 0.23499,1.41672 2.01093,2.63536 3.23294,3.17922 3.24972,1.44693 8.2821,1.03401 10.63881,-1.86658 1.40329,-1.73228 0.29207,-3.52836 -1.24549,-3.45451 -1.04744,0.0503 -2.49437,1.20521 -3.35045,1.80615 0,0 0,-8.05717 0,-8.05717 -2.58165,0.85608 -1.91693,0.65129 -4.36429,-0.33571 z m -33.57154,32.22867 c -1.73566,1.26565 -1.9035,1.02729 -3.69288,0 0,0 0,8.39288 0,8.39288 -0.78892,-0.57741 -2.07807,-1.68528 -3.02143,-1.833 -1.30928,-0.20814 -2.44736,0.82922 -2.22579,2.16873 0.235,1.41672 2.01093,2.63536 3.23294,3.17923 3.24973,1.44692 8.28209,1.03399 10.63882,-1.86659 1.40329,-1.73228 0.29207,-3.52836 -1.24551,-3.45451 -1.04743,0.0503 -2.49437,1.20521 -3.35045,1.80614 0,0 -0.3357,-8.39288 -0.3357,-8.39288 z"
         style="fill:#9f3334;fill-opacity:1;fill-rule:nonzero" />
    </g>
  </g>
  <g
     inkscape:groupmode="layer"
     id="g2190"
     inkscape:label="Layer 2 copy"
     style="display:none"
     sodipodi:insensitive="true">
    <g
       id="g2188"
       style="display:inline;fill:#8e6bf5;stroke-width:0"
       transform="matrix(0.86233528,0,0,0.86233528,13.766472,13.766472)">
      <path
         id="path2225"
         style="fill:#000000;fill-opacity:1;fill-rule:evenodd;stroke:#000000;stroke-width:2.35523;stroke-linecap:round;stroke-linejoin:round;stroke-miterlimit:6;stroke-dasharray:none;stroke-opacity:1"
         d="m 23.88492,26.398987 c -2.411266,0.07698 -5.147178,0.660321 -6.559224,2.819832 -1.148852,1.832597 -1.351858,4.213526 -0.727041,6.262519 0.843665,2.518765 3.459598,3.854785 5.929575,4.271649 3.124977,0.444423 6.049686,0.629116 9.148033,1.114343 -7.674827,5.646962 -12.605019,14.890455 -12.8761,24.431749 -0.181943,1.648652 0.366393,3.333089 1.556003,4.502672 1.008769,1.246503 2.277941,2.482956 3.972679,2.593339 4.651634,0.349514 9.397143,-0.260538 13.739037,-2.002194 4.680436,-1.774649 8.831333,-4.764563 12.207948,-8.439111 2.801367,-3.043915 5.312681,-6.45583 6.8061,-10.341649 1.182633,0.853998 2.223423,1.638209 3.383799,2.57069 0.595889,0.316257 0.69709,0.718839 0.13363,1.150582 -5.198931,6.236189 -8.992786,13.525743 -12.031283,21.020772 -2.328311,5.807512 -4.060343,11.857439 -5.00322,18.046925 0.133886,0.897286 -0.716574,0.629089 -1.313657,0.661358 -2.567405,-0.02511 -5.244097,0.03841 -7.571645,1.263828 -7.685451,3.462165 -13.189379,10.806189 -15.331279,18.853239 -1.718716,6.23998 -1.222745,13.09273 1.614891,18.93251 2.771235,5.85446 7.553299,10.61865 13.084474,13.90891 4.942821,2.91283 10.790874,3.95391 16.472802,3.64879 7.403733,-0.26636 14.847326,-2.85005 20.354883,-7.90006 4.942507,-4.44643 8.402324,-10.58536 9.306579,-17.19984 1.144044,-7.58963 -0.853381,-15.61161 -5.546803,-21.70252 -2.808424,-3.72367 -6.337559,-7.178702 -10.848992,-8.692779 -2.000183,-0.730889 -4.179068,-1.24932 -6.257988,-1.343101 0.834035,-5.29381 2.670724,-10.374155 4.713309,-15.30863 1.660932,-4.001646 3.751802,-7.815925 6.239869,-11.36313 0.904261,-1.323592 1.827473,-2.63606 2.810773,-3.902466 2.70582,1.703336 5.400207,3.442217 8.321335,4.763138 1.896482,1.003188 4.023939,1.50274 5.877481,2.582014 1.812107,1.349521 2.87538,3.423348 4.131224,5.252362 1.42299,2.231806 2.824902,4.476653 4.233146,6.717769 -4.973185,2.206084 -9.144407,6.061236 -12.033549,10.642884 -1.763369,2.838866 -2.739407,6.119169 -3.202604,9.410769 -0.35568,2.72121 0.259596,5.77816 2.446119,7.61467 2.205771,1.9874 5.405069,2.04628 8.174116,1.55827 5.586716,-0.87843 10.86763,-3.51739 14.9621,-7.4131 2.16722,6.19702 3.01548,12.76317 3.48345,19.28358 -4.183,-0.2098 -8.342012,1.18799 -11.718722,3.62614 -4.003509,2.8687 -7.130775,6.85141 -9.401705,11.19326 -2.525008,4.898 -3.027942,10.57878 -2.57069,15.99717 0.525586,5.11725 2.763998,9.9559 5.834447,14.03801 5.206523,6.8117 13.38245,11.17346 21.88597,12.00184 5.51851,0.35929 11.10374,-0.67723 16.21913,-2.74509 5.06487,-2.03237 9.23613,-5.83587 12.50692,-10.13328 2.56144,-3.44112 4.00789,-7.58018 4.94207,-11.73005 0.19692,-0.94783 0.34879,-1.90864 0.3941,-2.87645 4.00959,0.0585 8.08007,0.002 11.96333,-1.11888 6.56604,-1.77384 12.24035,-6.10647 16.33011,-11.46505 4.95298,-6.54912 6.89405,-15.29688 5.01455,-23.30608 -1.86536,-8.31708 -7.71441,-15.61114 -15.36526,-19.335666 -1.94691,-0.973449 -4.08878,-1.651946 -6.28969,-1.494851 -1.04681,0.02962 -2.09352,0.105014 -3.13919,0.16081 -1.26436,-4.49503 -2.95146,-8.931723 -5.66458,-12.767384 -2.1918,-3.247471 -4.97386,-6.085082 -7.65998,-8.878507 7.75217,-4.505891 13.7141,-12.200303 15.59175,-21.023037 0.59592,-3.076258 1.13166,-6.431507 -0.14269,-9.413029 -1.00053,-2.362921 -3.53249,-3.682817 -6.00885,-3.81187 -3.45651,-0.205028 -6.88111,0.619757 -10.18084,1.565064 -7.0278,2.12729 -13.39312,6.577366 -17.48069,12.71529 -1.92687,2.783825 -3.26835,5.91286 -4.40528,9.086881 -8.67691,-2.088113 -17.41057,-3.939998 -26.055701,-6.158332 -1.118852,-0.292912 -2.228272,-0.618482 -3.331705,-0.964858 -0.517218,-0.16501 -1.338212,-0.43697 -1.96369,-0.679478 C 83.563721,55.955648 80.612629,53.754464 77.998516,51.285986 73.174191,46.756409 68.473018,42.020402 62.918643,38.366853 52.993855,31.854667 41.468165,27.820134 29.653685,26.679838 27.737393,26.493193 25.811853,26.335737 23.88492,26.398987 Z m 1.705489,1.671515 v 0.0023 l 0.13363,0.0023 3.116538,0.269526 c 13.66915,1.031391 27.02515,6.237975 37.559256,14.572529 l 0.0023,0.0023 c 1.563355,1.235192 3.236166,2.577872 4.797112,4.11084 4.81147,4.724324 5.918391,7.045878 11.65757,10.160455 5.114671,2.777391 8.20349,3.257717 14.246381,4.609123 l 0.01132,0.0023 15.152354,3.497044 7.35194,1.759847 c 2.31576,-10.104617 9.7552,-18.767582 20.18955,-22.080757 3.31497,-1.054129 4.61477,-1.224566 7.86835,-1.633011 1.23707,-0.154983 3.92564,-0.732561 6.26478,1.481261 1.08954,1.030972 1.67352,2.691381 1.70775,3.80281 0.0342,1.111427 -0.14824,1.742167 -0.17892,2.036168 v 0.0045 c -0.22832,2.185195 -0.45633,4.2249 -1.23439,6.670205 -2.38827,7.533324 -8.52935,14.665688 -16.34143,18.18735 l 2.09505,1.565063 0.1291,0.117777 c 6.08806,5.605647 11.29519,13.602536 12.82854,22.248361 0.96623,-0.25641 1.94508,-0.50789 3.13692,-0.573026 4.561,-0.24908 8.36891,1.776133 11.30651,3.979473 6.45452,4.83673 10.63743,12.83265 10.73801,20.75578 v 0.002 c 0.16278,13.23276 -8.4201,24.42823 -21.90636,27.95371 -4.85776,1.26953 -8.0256,0.79408 -12.06526,0.61153 -0.16721,6.48124 -2.3261,12.91612 -6.94199,18.00163 -10.6941,11.78616 -30.02767,13.16744 -42.188765,2.53218 -3.134885,-2.74387 -5.337788,-5.67811 -7.089216,-9.34282 -1.898188,-3.97047 -2.593951,-8.23457 -2.543511,-12.35516 v -0.005 c 0.09384,-7.50348 3.917202,-15.05797 9.678026,-19.92002 h 0.0023 c 2.708987,-2.28536 5.703476,-4.0054 9.071026,-4.60912 1.71281,-0.30707 3.49059,-0.27899 5.28181,0.0498 -0.15241,-5.6028 -0.54298,-10.49202 -1.98408,-16.65399 -0.60496,-2.57985 -1.66967,-5.16055 -2.56163,-7.70075 -3.28783,4.08803 -7.821438,7.12168 -13.163745,8.41873 h -0.0091 l -0.0091,0.005 c -0.789843,0.18735 -2.329171,0.55999 -4.024773,0.70666 -0.847798,0.0733 -1.738134,0.10292 -2.736029,-0.0544 -0.995964,-0.15691 -2.261395,-0.48687 -3.34303,-1.70323 -1.152084,-1.2896 -1.277064,-2.54324 -1.343101,-3.57631 -0.06635,-1.03814 0.0282,-1.99448 0.16987,-2.91949 0.283353,-1.84999 0.756594,-3.480336 1.152847,-4.552501 v -0.0023 c 2.42383,-6.549882 7.920045,-11.861461 14.823936,-14.126339 -2.004827,-3.247713 -4.439291,-7.088681 -6.165127,-9.585164 h -0.0023 v -0.0023 c -0.485046,-0.703215 -1.222215,-1.861087 -1.97728,-2.969317 -0.377528,-0.554116 -0.754035,-1.083162 -1.041865,-1.458612 -0.09268,-0.120891 -0.169457,-0.192713 -0.251407,-0.278586 -0.135273,-0.06317 -0.313842,-0.150726 -0.532257,-0.221962 -0.508385,-0.165808 -1.113792,-0.328188 -1.737198,-0.536788 h -0.0023 -0.0023 c -2.10251,-0.706065 -4.003884,-1.55247 -5.882011,-2.489152 -3.004872,-1.496869 -5.318817,-3.10407 -7.802668,-5.102877 l -5.105141,6.982765 c -5.366726,8.6278 -8.937329,17.659067 -10.382418,27.469014 v 0.0023 c -0.03445,0.234766 -0.03063,0.403851 -0.06342,0.629649 0.492387,-0.07054 0.902966,-0.215526 1.451817,-0.235552 8.658894,-0.319718 15.065231,6.431052 18.411578,12.255502 5.784745,10.06555 4.451766,22.95317 -3.454011,31.66819 -6.022156,6.6381 -14.458688,9.77756 -23.344585,9.68029 -15.195435,-0.16884 -28.296122,-12.3787 -28.479171,-27.05227 -0.09849,-8.00017 2.973405,-15.81111 9.322433,-21.40581 2.947198,-2.59871 6.742425,-4.970347 11.503555,-5.145902 1.563593,-0.05847 2.887113,0.190675 4.138019,0.509608 1.101602,-11.672167 5.955939,-24.476352 11.877268,-33.767772 0.930979,-1.461616 2.462301,-3.734024 4.122164,-5.952223 0.801521,-1.071132 1.665621,-1.826544 2.475563,-2.776799 -2.165561,-2.040523 -4.543567,-3.911134 -7.25682,-5.74385 -1.430222,5.086044 -4.510671,9.738817 -8.491205,13.446861 -5.404196,5.034246 -12.539271,8.460373 -20.015145,8.543299 h -0.0023 c -0.281169,0.0026 -1.023923,0.05604 -1.920657,-0.0023 -0.895468,-0.05814 -2.157202,-0.02527 -3.594436,-1.38387 -2.139067,-2.017753 -1.549836,-4.12969 -1.553739,-4.55703 v -0.0023 -0.0068 c -0.0248,-3.765304 0.85035,-7.47403 2.382701,-10.846728 C 25.51763,48.551781 30.248515,43.261318 36.083652,39.870442 33.392801,39.291346 30.57562,38.78247 28.881345,38.627319 L 21.47504,38.042968 20.988081,37.84592 c -1.72214,-0.696711 -3.054754,-2.378763 -3.218459,-4.237676 -0.163704,-1.858914 0.892783,-3.801995 2.525391,-4.745018 1.516872,-0.876603 2.405613,-0.750709 3.275082,-0.788194 0.869465,-0.03756 1.656866,-0.0078 2.020314,-0.0045 z m 76.522771,45.457051 0.39409,0.586616 v 0.0023 c 3.06422,4.558879 5.85911,9.045442 8.31681,14.09463 5.17937,10.638747 7.92524,21.509691 8.8468,33.063371 0.84119,-6.4289 3.39881,-12.38594 8.9306,-17.26326 2.94722,-2.59875 6.74468,-4.968087 11.50582,-5.143638 0.62546,-0.02309 1.10636,0.129427 1.67378,0.176665 -0.474,-1.54436 -0.6714,-3.057149 -1.19815,-4.11084 -1.33723,-2.669206 -2.869,-5.128972 -4.77446,-7.225112 h -0.002 c -2.18394,-2.404721 -5.68308,-5.347937 -8.43684,-6.898962 -4.93142,-2.77412 -8.04669,-3.322342 -13.91797,-4.668011 h -0.002 z m 3.81186,2.674877 c 0.16537,0.03581 0.33065,0.0729 0.49602,0.108716 4.77531,1.104892 9.58047,2.116704 14.28715,3.49025 5.68473,1.913912 10.80668,5.490266 14.59971,10.133276 1.73892,2.245548 3.28969,4.696955 4.22862,7.390451 -5.16978,0.323499 -9.86355,3.142017 -13.41289,6.785717 -2.40866,2.4733 -4.38057,5.37544 -5.77103,8.5365 -2.19804,-12.983991 -7.31903,-25.38987 -14.42758,-36.44491 z" />
    </g>
  </g>
  <g
     inkscape:groupmode="layer"
     id="layer1"
     inkscape:label="Layer 1"
     style="display:none">
    <path
       id="path2498"
       style="color:#000000;display:none;fill:url(#linearGradient1219);fill-opacity:1;fill-rule:nonzero;stroke:none;stroke-width:0;stroke-dasharray:none;stroke-opacity:1"
       d="m 60.775391,102.25781 c -1.778568,0.0656 -3.272133,0.91947 -4.832032,2.29492 v 0.002 c -3.223328,2.83989 -4.725108,6.63579 -4.673828,10.80078 0.08768,7.02832 6.807462,13.45571 14.486328,13.54101 4.851211,0.0531 9.049594,-1.55441 12.140625,-4.96093 3.936556,-4.3395 4.594839,-10.79968 1.728516,-15.78711 -1.676959,-2.91884 -5.079766,-6.00466 -8.167969,-5.89063 -0.616859,0.0225 -1.12584,0.28016 -1.59375,0.4336 1.160083,0.0978 2.260679,0.7015 2.775391,1.7832 0.578056,1.21482 0.251136,2.80562 -0.615234,3.81445 l -0.002,0.002 c -1.193613,1.38573 -2.830086,2.00302 -4.402343,2.21875 -1.572259,0.21572 -3.148249,0.0506 -4.580079,-0.55079 -0.562702,-0.23623 -1.159593,-0.5599 -1.761718,-1.05859 -0.602126,-0.49869 -1.315064,-1.18785 -1.535156,-2.43945 v -0.002 c -0.197808,-1.12799 0.264377,-2.32325 1.041015,-3.02148 0.575781,-0.51765 1.314459,-0.73276 2.074219,-0.78906 v -0.043 c -0.671846,-0.23159 -1.289573,-0.37726 -2.082031,-0.34766 z m 66.109379,1.52149 c -1.77857,0.0656 -3.27213,0.91945 -4.83204,2.29492 -3.14925,2.77666 -4.28581,5.74284 -4.55468,9.55859 0.69041,0.12544 1.35975,0.12751 2.02539,0.37305 3.28684,1.21316 6.13891,3.7114 8.31054,6.65234 1.72405,2.3348 2.81754,4.9765 3.36719,7.65235 1.77479,0.107 3.13894,0.17162 5.10352,-0.3418 7.2486,-1.89488 11.28918,-7.26856 11.20508,-14.17578 -0.0458,-3.6084 -2.28681,-7.96805 -5.33985,-10.25586 -1.52597,-1.14454 -3.00537,-1.83695 -4.5625,-1.75195 -0.56981,0.0311 -1.08771,0.30994 -1.54297,0.44922 1.12345,0.12712 2.18309,0.70986 2.6836,1.76171 0.57806,1.21483 0.25113,2.80367 -0.61524,3.8125 v 0.002 l -0.002,0.002 c -1.19361,1.38575 -2.83009,2.00302 -4.40234,2.21875 -1.57227,0.21573 -3.14825,0.0506 -4.58008,-0.55078 -0.56271,-0.23623 -1.1596,-0.56186 -1.76172,-1.06055 -0.60213,-0.49869 -1.31506,-1.18785 -1.53516,-2.43945 -0.19779,-1.12799 0.26437,-2.32325 1.04102,-3.02149 0.54056,-0.48599 1.22632,-0.69879 1.93554,-0.77929 l -0.004,-0.1211 c -0.59746,-0.19409 -1.1472,-0.30849 -1.93945,-0.27929 z m -22.40039,18.24414 c -0.31124,0.003 -0.61639,0.0331 -0.92188,0.0879 -1.22195,0.21906 -2.51979,0.89109 -3.919922,2.07226 -2.749234,2.32034 -4.795591,6.47716 -4.83789,9.85938 -0.02686,2.19447 0.347702,4.32731 1.251953,6.21875 0.95767,2.00384 1.904169,3.26823 3.617187,4.76758 6.112512,5.34558 16.387242,4.60088 21.759762,-1.32032 2.4282,-2.6752 3.54616,-6.08733 3.50196,-9.66601 -0.0423,-3.38222 -2.08866,-7.53905 -4.83789,-9.85938 -1.40013,-1.18117 -2.69602,-1.8532 -3.91797,-2.07226 -0.87907,-0.1576 -1.80958,-0.007 -2.82422,0.34179 1.17696,0.0834 2.29899,0.69934 2.82031,1.79493 0.57806,1.21482 0.24918,2.80366 -0.61719,3.8125 v 0.002 l -0.002,0.002 c -1.19362,1.38574 -2.83008,2.00107 -4.40234,2.2168 -1.57226,0.21573 -3.14825,0.0506 -4.58008,-0.55078 v 0.002 c -0.5627,-0.23623 -1.15959,-0.56185 -1.76172,-1.06054 -0.60213,-0.49869 -1.31507,-1.18784 -1.53516,-2.43946 -0.19781,-1.128 0.26437,-2.32325 1.04102,-3.02148 0.55594,-0.49981 1.26476,-0.71281 1.99609,-0.78321 -0.28473,-0.0945 -0.6062,-0.27426 -0.87304,-0.32226 -0.3285,-0.059 -0.6458,-0.0846 -0.95703,-0.082 z" />
  </g>
</svg>
