<?xml version="1.0" encoding="UTF-8" standalone="no"?>
<svg
   width="200"
   height="200"
   viewBox="0 0 200 200"
   fill="none"
   version="1.1"
   id="svg11"
   xmlns:xlink="http://www.w3.org/1999/xlink"
   xmlns="http://www.w3.org/2000/svg"
   xmlns:svg="http://www.w3.org/2000/svg">
  <defs
     id="defs9">
    <linearGradient
       id="linearGradient4476">
      <stop
         style="stop-color:#000000;stop-opacity:1;"
         offset="0"
         id="stop4474" />
    </linearGradient>
    <linearGradient
       id="linearGradient3530">
      <stop
         style="stop-color:#000000;stop-opacity:1;"
         offset="0"
         id="stop3528" />
    </linearGradient>
    <linearGradient
       id="linearGradient5040">
      <stop
         style="stop-color:#000000;stop-opacity:1;"
         offset="0"
         id="stop5038" />
    </linearGradient>
    <linearGradient
       id="linearGradient3020"
       x1="40"
       y1="160"
       x2="160"
       y2="40"
       gradientUnits="userSpaceOnUse">
      <stop
         stop-color="#FFF275"
         id="stop3012"
         offset="0"
         style="stop-color:#2b0000;stop-opacity:1;" />
      <stop
         stop-color="#FFF275"
         id="stop3014"
         offset="0.42788377"
         style="stop-color:#481313;stop-opacity:1;" />
      <stop
         stop-color="#FFF275"
         id="stop3016"
         offset="0.83954597"
         style="stop-color:#431010;stop-opacity:1;" />
      <stop
         offset="1"
         stop-color="#EA5459"
         id="stop3018"
         style="stop-color:#000000;stop-opacity:1;" />
    </linearGradient>
    <linearGradient
       id="linearGradient2257"
       x1="40"
       y1="160"
       x2="160"
       y2="40"
       gradientUnits="userSpaceOnUse">
      <stop
         stop-color="#FFF275"
         id="stop2249"
         offset="0"
         style="stop-color:#2b0000;stop-opacity:1;" />
      <stop
         stop-color="#FFF275"
         id="stop2251"
         offset="0.42788377"
         style="stop-color:#ff7575;stop-opacity:1;" />
      <stop
         stop-color="#FFF275"
         id="stop2253"
         offset="0.83954597"
         style="stop-color:#431010;stop-opacity:1;" />
      <stop
         offset="1"
         stop-color="#EA5459"
         id="stop2255"
         style="stop-color:#000000;stop-opacity:1;" />
    </linearGradient>
    <linearGradient
       id="paint0_linear"
       x1="40"
       y1="160"
       x2="160"
       y2="40"
       gradientUnits="userSpaceOnUse">
      <stop
         stop-color="#FFF275"
         id="stop1312"
         offset="0"
         style="stop-color:#2b0000;stop-opacity:1;" />
      <stop
         stop-color="#FFF275"
         id="stop4"
         offset="0.45416105"
         style="stop-color:#ff7575;stop-opacity:1;" />
      <stop
         stop-color="#FFF275"
         id="stop1259"
         offset="0.83954597"
         style="stop-color:#431010;stop-opacity:1;" />
      <stop
         offset="1"
         stop-color="#EA5459"
         id="stop6"
         style="stop-color:#000000;stop-opacity:1;" />
    </linearGradient>
    <linearGradient
       xlink:href="#paint0_linear"
       id="linearGradient1219"
       x1="51.268261"
       y1="125.44179"
       x2="147.51106"
       y2="125.44179"
       gradientUnits="userSpaceOnUse" />
    <radialGradient
       xlink:href="#linearGradient3020"
       id="radialGradient2999"
       gradientUnits="userSpaceOnUse"
       gradientTransform="matrix(2.1969867,0,0,2.1969867,-51.362755,-188.41044)"
       cx="42.910046"
       cy="157.40395"
       fx="42.910046"
       fy="157.40395"
       r="62.267578" />
    <linearGradient
       xlink:href="#linearGradient2257"
       id="linearGradient4498"
       x1="35"
       y1="100"
       x2="165"
       y2="100"
       gradientUnits="userSpaceOnUse" />
  </defs>
  <g
     id="layer5">
    <g
       id="path1635"
       style="fill:#8e6bf5;stroke-width:0">
      <g
         id="path2506"
         style="stroke:#000000;stroke-opacity:1">
        <path
           id="path4350"
           style="color:#000000;display:inline;fill:#000000;fill-opacity:1;stroke:none;stroke-linecap:round;stroke-linejoin:round;stroke-miterlimit:6;stroke-opacity:1;-inkscape-stroke:none;paint-order:stroke fill markers"
           d="M 97.488281,41 C 78.660156,41.0013 59.832021,40.98852 41.003906,41.01367 40.994795,80.342142 41.002602,119.67127 41,159 c 39.333333,0 78.66667,0 118,0 -0.0111,-20.21273 0.0318,-40.42611 -0.031,-60.638436 -0.27526,-11.545572 -4.08154,-22.96694 -10.78469,-32.37141 -2.55329,-3.617992 -5.51765,-6.94425 -8.80737,-9.908123 -0.28743,-0.240672 -0.85772,-0.761759 -1.15921,-1.011543 -7.91812,-6.75116 -17.64469,-11.35934 -27.89352,-13.17205 -0.43541,-0.07593 -1.24518,-0.203782 -1.82569,-0.287129 C 104.85451,41.093876 101.16594,40.937112 97.488281,41 Z" />
        <path
           style="color:#000000;display:inline;fill:url(#radialGradient2999);stroke:url(#linearGradient4498);stroke-width:5;stroke-linecap:round;stroke-linejoin:round;stroke-miterlimit:6;stroke-dasharray:none;stroke-opacity:1;paint-order:stroke fill markers"
           d="M 40,40 V 160 H 160 V 100 C 160,66.862966 133.13694,40 100,40 Z m 10.433594,12.085938 0.08789,0.002 2.076172,0.179687 c 9.105532,0.687048 18.00237,4.155073 25.019532,9.707031 l 0.002,0.002 c 1.04141,0.822807 2.155508,1.717115 3.195312,2.738282 3.2051,3.147049 3.942543,4.692842 7.765625,6.767578 3.407073,1.850124 5.464839,2.17009 9.490234,3.070312 l 0.0078,0.002 10.093751,2.330078 4.89648,1.171875 c 1.54261,-6.731063 6.49851,-12.501955 13.44922,-14.708985 2.20823,-0.702195 3.07486,-0.81581 5.24219,-1.08789 0.82406,-0.10324 2.61368,-0.488382 4.17187,0.986328 0.72578,0.686769 1.11587,1.792839 1.13867,2.533203 0.0228,0.740363 -0.0987,1.161577 -0.11914,1.357422 v 0.002 c -0.15209,1.45564 -0.30397,2.81445 -0.82226,4.443359 -1.59092,5.018229 -5.6828,9.769324 -10.88672,12.115235 l 1.39648,1.042968 0.0859,0.07813 c 4.05548,3.734131 7.5235,9.061006 8.54492,14.820313 0.64364,-0.170804 1.29592,-0.33747 2.08985,-0.38086 3.03825,-0.165921 5.5744,1.182656 7.53124,2.650386 4.2996,3.22192 7.0873,8.54829 7.1543,13.82618 v 0.002 c 0.10843,8.81483 -5.61005,16.27264 -14.59375,18.62109 -3.23594,0.84568 -5.34614,0.52785 -8.03711,0.40625 -0.11138,4.3174 -1.54822,8.60455 -4.62304,11.99219 -7.12374,7.85121 -20.00256,8.77204 -28.103516,1.6875 -2.088264,-1.82779 -3.555964,-3.78341 -4.722656,-6.22461 -1.264454,-2.64488 -1.728913,-5.48559 -1.695313,-8.23047 v -0.002 c 0.06251,-4.99835 2.609766,-10.03073 6.447266,-13.26953 h 0.002 c 1.804557,-1.52236 3.799719,-2.66816 6.042969,-3.07032 1.14097,-0.20455 2.32438,-0.18587 3.51758,0.0332 -0.10153,-3.73224 -0.3623,-6.98903 -1.32227,-11.09375 -0.40299,-1.71853 -1.11091,-3.43874 -1.70508,-5.13086 -2.19015,2.72319 -5.210817,4.74536 -8.769527,5.60937 h -0.0059 l -0.0059,0.002 c -0.526144,0.1248 -1.552138,0.373 -2.681641,0.4707 -0.56475,0.0488 -1.15753,0.0696 -1.822265,-0.0352 -0.663449,-0.10452 -1.506045,-0.3245 -2.226563,-1.13476 -0.767446,-0.85906 -0.850541,-1.69464 -0.894531,-2.38281 -0.0442,-0.69154 0.01891,-1.32914 0.113281,-1.94532 0.188752,-1.23235 0.503619,-2.317037 0.767578,-3.031246 v -0.002 c 1.614604,-4.363121 5.27606,-7.901436 9.875,-9.410156 -1.33549,-2.163423 -2.957777,-4.721765 -4.107421,-6.384765 h -0.002 v -0.002 c -0.323108,-0.468438 -0.81343,-1.240282 -1.316407,-1.978515 -0.251486,-0.369118 -0.501624,-0.720602 -0.693359,-0.970703 -0.06174,-0.08053 -0.113379,-0.128344 -0.167969,-0.185547 -0.09011,-0.04208 -0.209974,-0.100985 -0.355469,-0.148438 -0.338654,-0.110451 -0.740976,-0.218466 -1.15625,-0.357422 h -0.002 -0.002 c -1.40056,-0.470336 -2.666878,-1.034244 -3.917969,-1.658203 -2.001657,-0.99712 -3.542679,-2.066957 -5.197265,-3.398437 l -3.400391,4.65039 c -3.574977,5.7473 -5.953387,11.764057 -6.916015,18.298829 v 0.002 c -0.02295,0.156387 -0.02113,0.267556 -0.04297,0.417968 0.327997,-0.04699 0.601187,-0.14291 0.966797,-0.15625 5.768013,-0.212976 10.036498,4.284175 12.265625,8.164065 3.853435,6.70504 2.965552,15.29031 -2.300782,21.09571 -4.011583,4.42189 -9.631553,6.51206 -15.550781,6.44726 -10.122247,-0.11247 -18.848767,-8.24492 -18.970703,-18.01953 -0.06561,-5.32921 1.97966,-10.53293 6.208984,-14.25977 1.963239,-1.731102 4.492496,-3.310791 7.664063,-3.427735 1.041567,-0.03895 1.922584,0.127391 2.755859,0.339844 0.733818,-7.775267 3.967691,-16.304779 7.91211,-22.494141 0.62016,-0.973637 1.640396,-2.487217 2.746093,-3.964843 0.533923,-0.713521 1.108905,-1.21661 1.648438,-1.84961 -1.442562,-1.359269 -3.026585,-2.60533 -4.833984,-3.826171 -0.952724,3.388004 -3.004668,6.486964 -5.65625,8.957031 -3.599937,3.353499 -8.352073,5.636166 -13.332032,5.691406 h -0.002 c -0.187297,0.0017 -0.681949,0.03684 -1.279297,-0.002 -0.596505,-0.03873 -1.437135,-0.01686 -2.394531,-0.921875 C 46.746734,78.310285 47.13909,76.903897 47.13649,76.61923 v -0.002 -0.0039 c -0.01652,-2.50821 0.567133,-4.979882 1.58789,-7.226562 1.661038,-3.658802 4.812216,-7.182618 8.699219,-9.441407 C 55.631019,59.55939 53.753619,59.22054 52.625,59.117188 l -4.933594,-0.388672 -0.324218,-0.13086 c -1.147181,-0.464105 -2.035482,-1.585927 -2.144532,-2.824218 -0.109049,-1.238292 0.596053,-2.531974 1.683594,-3.160157 1.010445,-0.583938 1.602455,-0.50042 2.181641,-0.52539 0.579183,-0.02502 1.103597,-0.0042 1.345703,-0.002 z m 50.974606,30.279296 0.26172,0.390625 v 0.002 c 2.04119,3.03684 3.90386,6.025219 5.54102,9.388672 3.45018,7.086867 5.2787,14.329059 5.89258,22.025399 0.56035,-4.28253 2.26428,-8.25105 5.94921,-11.5 1.96326,-1.73113 4.4925,-3.308848 7.66407,-3.425789 0.41664,-0.01538 0.73725,0.08572 1.11523,0.117187 -0.31575,-1.028756 -0.44794,-2.036378 -0.79883,-2.738281 -0.89078,-1.778058 -1.91038,-3.416183 -3.17968,-4.8125 h -0.002 c -1.45481,-1.601875 -3.78475,-3.562507 -5.61914,-4.595703 -3.285,-1.847945 -5.36041,-2.212974 -9.27148,-3.109375 h -0.002 z"
           id="path4336" />
      </g>
    </g>
  </g>
  <g
     id="layer1"
     style="display:none">
    <path
       id="path2498"
       style="color:#000000;display:none;fill:url(#linearGradient1219);fill-opacity:1;fill-rule:nonzero;stroke:none;stroke-width:0;stroke-dasharray:none;stroke-opacity:1"
       d="m 60.775391,102.25781 c -1.778568,0.0656 -3.272133,0.91947 -4.832032,2.29492 v 0.002 c -3.223328,2.83989 -4.725108,6.63579 -4.673828,10.80078 0.08768,7.02832 6.807462,13.45571 14.486328,13.54101 4.851211,0.0531 9.049594,-1.55441 12.140625,-4.96093 3.936556,-4.3395 4.594839,-10.79968 1.728516,-15.78711 -1.676959,-2.91884 -5.079766,-6.00466 -8.167969,-5.89063 -0.616859,0.0225 -1.12584,0.28016 -1.59375,0.4336 1.160083,0.0978 2.260679,0.7015 2.775391,1.7832 0.578056,1.21482 0.251136,2.80562 -0.615234,3.81445 l -0.002,0.002 c -1.193613,1.38573 -2.830086,2.00302 -4.402343,2.21875 -1.572259,0.21572 -3.148249,0.0506 -4.580079,-0.55079 -0.562702,-0.23623 -1.159593,-0.5599 -1.761718,-1.05859 -0.602126,-0.49869 -1.315064,-1.18785 -1.535156,-2.43945 v -0.002 c -0.197808,-1.12799 0.264377,-2.32325 1.041015,-3.02148 0.575781,-0.51765 1.314459,-0.73276 2.074219,-0.78906 v -0.043 c -0.671846,-0.23159 -1.289573,-0.37726 -2.082031,-0.34766 z m 66.109379,1.52149 c -1.77857,0.0656 -3.27213,0.91945 -4.83204,2.29492 -3.14925,2.77666 -4.28581,5.74284 -4.55468,9.55859 0.69041,0.12544 1.35975,0.12751 2.02539,0.37305 3.28684,1.21316 6.13891,3.7114 8.31054,6.65234 1.72405,2.3348 2.81754,4.9765 3.36719,7.65235 1.77479,0.107 3.13894,0.17162 5.10352,-0.3418 7.2486,-1.89488 11.28918,-7.26856 11.20508,-14.17578 -0.0458,-3.6084 -2.28681,-7.96805 -5.33985,-10.25586 -1.52597,-1.14454 -3.00537,-1.83695 -4.5625,-1.75195 -0.56981,0.0311 -1.08771,0.30994 -1.54297,0.44922 1.12345,0.12712 2.18309,0.70986 2.6836,1.76171 0.57806,1.21483 0.25113,2.80367 -0.61524,3.8125 v 0.002 l -0.002,0.002 c -1.19361,1.38575 -2.83009,2.00302 -4.40234,2.21875 -1.57227,0.21573 -3.14825,0.0506 -4.58008,-0.55078 -0.56271,-0.23623 -1.1596,-0.56186 -1.76172,-1.06055 -0.60213,-0.49869 -1.31506,-1.18785 -1.53516,-2.43945 -0.19779,-1.12799 0.26437,-2.32325 1.04102,-3.02149 0.54056,-0.48599 1.22632,-0.69879 1.93554,-0.77929 l -0.004,-0.1211 c -0.59746,-0.19409 -1.1472,-0.30849 -1.93945,-0.27929 z m -22.40039,18.24414 c -0.31124,0.003 -0.61639,0.0331 -0.92188,0.0879 -1.22195,0.21906 -2.51979,0.89109 -3.919922,2.07226 -2.749234,2.32034 -4.795591,6.47716 -4.83789,9.85938 -0.02686,2.19447 0.347702,4.32731 1.251953,6.21875 0.95767,2.00384 1.904169,3.26823 3.617187,4.76758 6.112512,5.34558 16.387242,4.60088 21.759762,-1.32032 2.4282,-2.6752 3.54616,-6.08733 3.50196,-9.66601 -0.0423,-3.38222 -2.08866,-7.53905 -4.83789,-9.85938 -1.40013,-1.18117 -2.69602,-1.8532 -3.91797,-2.07226 -0.87907,-0.1576 -1.80958,-0.007 -2.82422,0.34179 1.17696,0.0834 2.29899,0.69934 2.82031,1.79493 0.57806,1.21482 0.24918,2.80366 -0.61719,3.8125 v 0.002 l -0.002,0.002 c -1.19362,1.38574 -2.83008,2.00107 -4.40234,2.2168 -1.57226,0.21573 -3.14825,0.0506 -4.58008,-0.55078 v 0.002 c -0.5627,-0.23623 -1.15959,-0.56185 -1.76172,-1.06054 -0.60213,-0.49869 -1.31507,-1.18784 -1.53516,-2.43946 -0.19781,-1.128 0.26437,-2.32325 1.04102,-3.02148 0.55594,-0.49981 1.26476,-0.71281 1.99609,-0.78321 -0.28473,-0.0945 -0.6062,-0.27426 -0.87304,-0.32226 -0.3285,-0.059 -0.6458,-0.0846 -0.95703,-0.082 z" />
  </g>
</svg>
